<svg id="Capa_1" enable-background="new 0 0 512 512" height="512" viewBox="0 0 512 512" width="512" xmlns="http://www.w3.org/2000/svg"><g><path d="m391 271c-27.551 0-52.957 9.339-73.235 25.008-9.234-16.175-22.757-29.641-38.916-39.198 32.411-18.957 54.176-54.956 52.003-96.435-2.957-56.463-52.943-99.375-109.945-99.375h-115.907c-8.271 0-15-6.729-15-15v-46h-90v76c0 38.151 20.455 71.612 50.971 90-30.516 18.388-50.971 51.849-50.971 90s20.455 71.612 50.971 90c-30.516 18.388-50.971 51.849-50.971 90v76h90v-46c0-8.271 6.729-15 15-15h121c19.143 0 37.605-5.146 53.71-14.756 17.806 44.371 60.978 75.756 111.29 75.756 66.205 0 121-54.538 121-121 0-66.168-54.28-120-121-120zm-120 120c0 4.856.294 9.643.848 14.351-13.086 10.134-29.101 15.649-45.848 15.649h-121c-24.813 0-45 20.187-45 45v16h-30v-46c0-41.355 33.645-75 75-75h151v-30h-151c-41.355 0-75-33.645-75-75s33.645-75 75-75h151v-30h-151c-41.355 0-75-33.645-75-75v-46h30v16c0 24.813 20.187 45 45 45h115.907c42.056 0 77.938 31.825 79.986 70.945 2.276 43.452-32.229 79.055-74.893 79.055-18.529 0-138.578 0-151 0v30h146.099c32.403.078 62.435 19.638 74.35 47.493-15.332 20.157-24.449 45.286-24.449 72.507zm120 91c-49.626 0-90-40.823-90-91 0-49.626 40.374-90 90-90 50.178 0 91 40.374 91 90 0 49.327-41.673 91-91 91z"/><path d="m361 331h60v30h-60z"/><path d="m421 391h30v30h-30z"/><path d="m361 391h-30c0 33.084 26.916 60 60 60v-30c-16.542 0-30-13.458-30-30z"/></g></svg>